<svg width="43" height="43" viewBox="0 0 43 43" fill="none" xmlns="http://www.w3.org/2000/svg">
<path fill-rule="evenodd" clip-rule="evenodd" d="M14.816 38.109C13.7121 37.6893 11.9894 36.7675 10.7428 35.9296C9.25127 34.927 7.20205 33.0148 6.18155 31.6734C4.34852 29.264 3.38961 26.8135 2.8386 23.1299C2.46802 20.6529 2.44167 20.024 2.40747 12.8345C2.37112 5.18829 2.33797 5.66823 2.94385 5.06242C3.52846 4.47774 3.18259 4.50402 10.3034 4.50402C17.181 4.50402 16.9402 4.48999 17.5084 4.92342C17.6535 5.03406 17.8629 5.27892 17.9738 5.46749L18.0384 5.5773C18.1281 5.72999 18.1757 5.90377 18.1762 6.08088L18.1956 12.325L18.2153 18.632C18.2157 18.7689 18.188 18.9045 18.1339 19.0303L18.0546 19.2146C17.8652 19.6548 17.3454 20.1454 16.9528 20.2545C16.7919 20.2991 15.4507 20.3297 13.6403 20.33L11.0676 20.3303C10.8083 20.3304 10.5982 20.5406 10.5982 20.7998C10.5982 21.8686 10.9029 23.6825 11.2844 24.8842C11.7915 26.4819 12.5653 27.7702 13.6861 28.8827C14.6005 29.7904 15.6594 30.5113 17.1479 31.2396C18.2363 31.7721 18.3996 31.9042 18.6987 32.4948C18.7779 32.6512 18.8306 32.9299 18.8333 33.2055C18.837 33.6043 18.7873 33.7663 18.4196 34.5533C17.0205 37.5477 16.906 37.7376 16.3216 38.0358C15.893 38.2545 15.2775 38.2843 14.816 38.109ZM36.8918 38.1637C36.478 38.0873 34.5327 37.1353 33.4792 36.4938C30.2833 34.5474 27.7887 31.9397 26.3288 29.0195C25.2614 26.8842 24.7326 24.7272 24.3602 20.9881C24.2613 19.9945 24.2329 18.5088 24.2062 12.9098C24.1692 5.17963 24.1358 5.66913 24.7425 5.06242C25.3271 4.47782 24.9817 4.50402 32.0982 4.50402C39.0347 4.50402 38.7915 4.48894 39.3556 4.95388C39.5036 5.07586 39.7116 5.35028 39.818 5.56371L39.9063 5.741C39.9754 5.87961 40.0113 6.03237 40.0113 6.18723L40.0097 12.4132C40.0081 18.7522 40.0052 18.881 39.856 19.2106C39.6812 19.5968 39.4147 19.8976 39.0409 20.1303C38.7856 20.2893 38.7055 20.294 35.5706 20.3304L32.9591 20.3608C32.6317 20.3646 32.3718 20.6377 32.3843 20.965C32.4432 22.5075 32.8156 24.3433 33.3328 25.6402C33.8645 26.9736 34.5014 27.9463 35.4678 28.9009C36.3474 29.7697 37.2454 30.3888 38.655 31.098C40.0063 31.7779 40.3839 32.0912 40.5369 32.6592C40.7179 33.3314 40.6226 33.6701 39.7316 35.5222C39.2344 36.5559 38.7931 37.3698 38.6229 37.5671C38.1905 38.0686 37.5577 38.2866 36.8918 38.1637Z" fill="#DADEE7"/>
</svg>
