<svg width="27" height="31" viewBox="0 0 27 31" fill="none" xmlns="http://www.w3.org/2000/svg">
<path d="M26.2099 22.3768C25.6692 23.6701 25.0058 24.9086 24.2286 26.0753C22.9414 28.0334 21.1276 30.4744 18.881 30.4947C16.8838 30.5128 16.371 29.1944 13.6595 29.2097C10.948 29.2249 10.3838 30.515 8.38584 30.4998C6.13771 30.4788 4.41971 28.2756 3.1332 26.3168C-0.465259 20.8386 -0.841643 14.4097 1.37748 10.9918C2.04857 9.87493 2.98348 8.9398 4.10018 8.26841C5.21689 7.59702 6.48129 7.20988 7.78247 7.14099C10.1648 7.14099 11.6623 8.44635 13.6312 8.44635C15.5414 8.44635 16.7061 7.14099 19.4597 7.14099C20.6039 7.19312 21.7224 7.49749 22.7353 8.03231C23.7481 8.56714 24.6303 9.3192 25.3186 10.2347C20.1704 13.0557 21.0044 20.4108 26.2099 22.3768Z" fill="white"/>
<path d="M17.3718 4.95169C17.9355 4.26617 18.3571 3.47529 18.612 2.62514C18.8669 1.77499 18.9499 0.882583 18.8563 0C17.0406 0.215705 15.3742 1.11187 14.1932 2.50776C13.614 3.16059 13.179 3.92828 12.9166 4.76065C12.6542 5.59301 12.5703 6.47134 12.6703 7.33834C13.5826 7.31774 14.4787 7.0926 15.2924 6.67953C16.1061 6.26646 16.8167 5.67599 17.3718 4.95169Z" fill="white"/>
</svg>
