<svg width="29" height="29" viewBox="0 0 29 29" fill="none" xmlns="http://www.w3.org/2000/svg">
<g filter="url(#filter0_d_94_261783)">
<path fill-rule="evenodd" clip-rule="evenodd" d="M22.6667 14.3333C22.6667 18.9357 18.9357 22.6667 14.3333 22.6667C9.73096 22.6667 6 18.9357 6 14.3333C6 9.73096 9.73096 6 14.3333 6C18.9357 6 22.6667 9.73096 22.6667 14.3333ZM14.3333 10.7917C13.8156 10.7917 13.3958 11.2114 13.3958 11.7292C13.3958 12.0743 13.116 12.3542 12.7708 12.3542C12.4257 12.3542 12.1458 12.0743 12.1458 11.7292C12.1458 10.521 13.1252 9.54167 14.3333 9.54167C15.5415 9.54167 16.5208 10.521 16.5208 11.7292C16.5208 12.3215 16.2846 12.86 15.9025 13.2533C15.8256 13.3324 15.7522 13.4057 15.6823 13.4756C15.5024 13.6553 15.3448 13.8128 15.2066 13.9904C15.0241 14.2249 14.9583 14.3973 14.9583 14.5417V15.1667C14.9583 15.5118 14.6785 15.7917 14.3333 15.7917C13.9882 15.7917 13.7083 15.5118 13.7083 15.1667V14.5417C13.7083 13.9957 13.9625 13.5537 14.2201 13.2227C14.4108 12.9777 14.6504 12.7386 14.8448 12.5446C14.9035 12.486 14.958 12.4316 15.0059 12.3823C15.1705 12.2129 15.2708 11.9834 15.2708 11.7292C15.2708 11.2114 14.8511 10.7917 14.3333 10.7917ZM14.3333 18.5C14.7936 18.5 15.1667 18.1269 15.1667 17.6667C15.1667 17.2064 14.7936 16.8333 14.3333 16.8333C13.8731 16.8333 13.5 17.2064 13.5 17.6667C13.5 18.1269 13.8731 18.5 14.3333 18.5Z" fill="white"/>
</g>
<defs>
<filter id="filter0_d_94_261783" x="0" y="0" width="28.6667" height="28.6667" filterUnits="userSpaceOnUse" color-interpolation-filters="sRGB">
<feFlood flood-opacity="0" result="BackgroundImageFix"/>
<feColorMatrix in="SourceAlpha" type="matrix" values="0 0 0 0 0 0 0 0 0 0 0 0 0 0 0 0 0 0 127 0" result="hardAlpha"/>
<feOffset/>
<feGaussianBlur stdDeviation="3"/>
<feComposite in2="hardAlpha" operator="out"/>
<feColorMatrix type="matrix" values="0 0 0 0 0 0 0 0 0 0 0 0 0 0 0 0 0 0 0.4 0"/>
<feBlend mode="normal" in2="BackgroundImageFix" result="effect1_dropShadow_94_261783"/>
<feBlend mode="normal" in="SourceGraphic" in2="effect1_dropShadow_94_261783" result="shape"/>
</filter>
</defs>
</svg>
