<svg width="16" height="18" viewBox="0 0 16 18" fill="none" xmlns="http://www.w3.org/2000/svg">
<g clip-path="url(#clip0_2658_199684)">
<path d="M9.95768 15.9725C9.67217 16.6098 9.48344 17.3013 9.41113 18.0266L15.4532 16.7337C15.7387 16.0966 15.9273 15.4049 15.9998 14.6797L9.95768 15.9725Z" fill="#353535"/>
<path d="M15.4534 12.8613C15.739 12.2241 15.9277 11.5324 16 10.8072L11.2934 11.8148V9.87785L15.4533 8.98802C15.7388 8.3509 15.9276 7.65921 15.9999 6.93399L11.2933 7.94073V0.974772C10.5721 1.38237 9.93157 1.92492 9.41093 2.5649V8.3436L7.5286 8.74632V0.0273438C6.80741 0.434797 6.16692 0.977494 5.64627 1.61747V9.1489L1.43455 10.0498C1.14904 10.6869 0.960165 11.3786 0.887719 12.1038L5.64627 11.0859V13.5252L0.546551 14.616C0.261035 15.2531 0.0723042 15.9448 0 16.67L5.33798 15.5282C5.77252 15.4372 6.146 15.1786 6.38881 14.8227L7.36777 13.3618V13.3615C7.46939 13.2104 7.5286 13.0282 7.5286 12.8319V10.6832L9.41093 10.2804V14.1544L15.4533 12.861L15.4534 12.8613Z" fill="#353535"/>
</g>
<defs>
<clipPath id="clip0_2658_199684">
<rect width="16" height="18" fill="white"/>
</clipPath>
</defs>
</svg>
