<svg width="63" height="63" viewBox="0 0 63 63" fill="none" xmlns="http://www.w3.org/2000/svg">
<g filter="url(#filter0_i_94_270858)">
<rect width="63" height="63" rx="31.5" fill="#6927DA"/>
<rect x="0.5" y="0.5" width="62" height="62" rx="31" stroke="#AD6DF8"/>
<path d="M31.9999 17.5C40.008 17.5 46.4999 23.9919 46.4999 32C46.4999 40.0081 40.008 46.5 31.9999 46.5C23.9918 46.5 17.4999 40.0081 17.4999 32C17.4999 23.9919 23.9917 17.5 31.9999 17.5Z" stroke="url(#paint0_radial_94_270858)" style="mix-blend-mode:plus-lighter"/>
<path d="M31.9999 17.5C40.008 17.5 46.4999 23.9919 46.4999 32C46.4999 40.0081 40.008 46.5 31.9999 46.5C23.9918 46.5 17.4999 40.0081 17.4999 32C17.4999 23.9919 23.9917 17.5 31.9999 17.5Z" stroke="url(#paint1_radial_94_270858)" style="mix-blend-mode:plus-lighter"/>
<path d="M38.9685 32.2104H37.3445C37.51 32.6636 37.6005 33.1527 37.6005 33.6625V39.8005C37.6005 40.0131 37.5635 40.2171 37.4962 40.4068H40.1811C41.184 40.4068 42 39.5908 42 38.5879V35.2418C42 33.5703 40.6401 32.2104 38.9685 32.2104Z" fill="white"/>
<path d="M25.3995 33.6626C25.3995 33.1527 25.49 32.6637 25.6555 32.2104H24.0315C22.3599 32.2104 21 33.5704 21 35.2419V38.588C21 39.5909 21.8159 40.4069 22.8189 40.4069H25.5039C25.4365 40.2171 25.3995 40.0131 25.3995 39.8006V33.6626Z" fill="white"/>
<path d="M33.3565 30.6311H29.6437C27.9721 30.6311 26.6122 31.991 26.6122 33.6626V39.8006C26.6122 40.1354 26.8836 40.4069 27.2185 40.4069H35.7817C36.1165 40.4069 36.3879 40.1354 36.3879 39.8006V33.6626C36.3879 31.991 35.028 30.6311 33.3565 30.6311Z" fill="white"/>
<path d="M31.5 22.5931C29.4897 22.5931 27.8542 24.2285 27.8542 26.2388C27.8542 27.6024 28.6068 28.7933 29.7183 29.4185C30.2455 29.7151 30.8532 29.8846 31.5 29.8846C32.1467 29.8846 32.7545 29.7151 33.2817 29.4185C34.3931 28.7933 35.1457 27.6024 35.1457 26.2388C35.1457 24.2286 33.5102 22.5931 31.5 22.5931Z" fill="white"/>
<path d="M25.0982 25.9911C23.5948 25.9911 22.3717 27.2142 22.3717 28.7177C22.3717 30.2211 23.5948 31.4442 25.0982 31.4442C25.4796 31.4442 25.8427 31.3652 26.1726 31.2232C26.743 30.9776 27.2133 30.5429 27.5043 29.9985C27.7085 29.6163 27.8247 29.1804 27.8247 28.7177C27.8247 27.2143 26.6017 25.9911 25.0982 25.9911Z" fill="white"/>
<path d="M37.9018 25.9911C36.3984 25.9911 35.1753 27.2142 35.1753 28.7177C35.1753 29.1804 35.2915 29.6164 35.4957 29.9985C35.7868 30.543 36.257 30.9777 36.8274 31.2232C37.1573 31.3652 37.5204 31.4442 37.9018 31.4442C39.4052 31.4442 40.6283 30.2211 40.6283 28.7177C40.6283 27.2142 39.4052 25.9911 37.9018 25.9911Z" fill="white"/>
</g>
<defs>
<filter id="filter0_i_94_270858" x="0" y="0" width="63" height="63" filterUnits="userSpaceOnUse" color-interpolation-filters="sRGB">
<feFlood flood-opacity="0" result="BackgroundImageFix"/>
<feBlend mode="normal" in="SourceGraphic" in2="BackgroundImageFix" result="shape"/>
<feColorMatrix in="SourceAlpha" type="matrix" values="0 0 0 0 0 0 0 0 0 0 0 0 0 0 0 0 0 0 127 0" result="hardAlpha"/>
<feOffset/>
<feGaussianBlur stdDeviation="2.5"/>
<feComposite in2="hardAlpha" operator="arithmetic" k2="-1" k3="1"/>
<feColorMatrix type="matrix" values="0 0 0 0 0.466667 0 0 0 0 0.2 0 0 0 0 1 0 0 0 1 0"/>
<feBlend mode="normal" in2="shape" result="effect1_innerShadow_94_270858"/>
</filter>
<radialGradient id="paint0_radial_94_270858" cx="0" cy="0" r="1" gradientUnits="userSpaceOnUse" gradientTransform="translate(22.8694 20.913) rotate(53.7462) scale(12.1311 20.5975)">
<stop stop-color="white"/>
<stop offset="1" stop-color="#8223EF" stop-opacity="0"/>
</radialGradient>
<radialGradient id="paint1_radial_94_270858" cx="0" cy="0" r="1" gradientUnits="userSpaceOnUse" gradientTransform="translate(39.826 43.7391) rotate(-124.38) scale(7.50708 12.7463)">
<stop stop-color="white"/>
<stop offset="1" stop-color="#8223EF" stop-opacity="0"/>
</radialGradient>
</defs>
</svg>
