<svg width="143" height="48" viewBox="0 0 143 48" fill="none" xmlns="http://www.w3.org/2000/svg">
<path d="M18.1434 7.96146H31.0608L21.5639 29.2712H8.64648L18.1434 7.96146Z" fill="#6927DA"/>
<path d="M18.7091 31.2462L15.0308 39.5H28.5609L38.0578 18.1903H28.0717L22.2532 31.2462H18.7091Z" fill="#8A5CFF"/>
<path d="M56.5908 17.7562L57.4574 12.648H77.7536L76.887 17.7562H69.8632L66.8529 36H60.6045L63.6147 17.7562H56.5908ZM82.2062 36.3193C80.3058 36.3193 78.7399 35.943 77.5084 35.1904C76.2846 34.4303 75.4256 33.3737 74.9315 32.0206C74.4374 30.6599 74.3386 29.0826 74.6351 27.2886C74.9315 25.4946 75.551 23.9211 76.4936 22.568C77.4362 21.2073 78.6487 20.1507 80.131 19.3982C81.6133 18.638 83.3084 18.2579 85.2164 18.2579C87.1092 18.2579 88.6675 18.638 89.8914 19.3982C91.1229 20.1507 91.9856 21.2073 92.4797 22.568C92.9814 23.9211 93.0841 25.4946 92.7876 27.2886C92.4911 29.0826 91.8678 30.6599 90.9176 32.0206C89.9674 33.3737 88.7512 34.4303 87.2689 35.1904C85.7942 35.943 84.1066 36.3193 82.2062 36.3193ZM82.9816 31.6671C83.5289 31.6671 84.0268 31.4885 84.4753 31.1312C84.9314 30.7739 85.3191 30.2646 85.6383 29.6033C85.9652 28.9419 86.2046 28.1552 86.3567 27.243C86.5087 26.3232 86.5315 25.5364 86.4251 24.8827C86.3187 24.2214 86.0982 23.7121 85.7637 23.3548C85.4293 22.9975 84.9884 22.8189 84.4411 22.8189C83.8938 22.8189 83.3921 22.9975 82.936 23.3548C82.4799 23.7121 82.0922 24.2214 81.7729 24.8827C81.4537 25.5364 81.218 26.3232 81.066 27.243C80.9139 28.1552 80.8873 28.9419 80.9862 29.6033C81.0926 30.2646 81.313 30.7739 81.6475 31.1312C81.9896 31.4885 82.4343 31.6671 82.9816 31.6671ZM102.274 36.3193C100.374 36.3193 98.808 35.943 97.5766 35.1904C96.3527 34.4303 95.4938 33.3737 94.9997 32.0206C94.5056 30.6599 94.4067 29.0826 94.7032 27.2886C94.9997 25.4946 95.6192 23.9211 96.5618 22.568C97.5044 21.2073 98.7168 20.1507 100.199 19.3982C101.681 18.638 103.377 18.2579 105.285 18.2579C107.177 18.2579 108.736 18.638 109.96 19.3982C111.191 20.1507 112.054 21.2073 112.548 22.568C113.05 23.9211 113.152 25.4946 112.856 27.2886C112.559 29.0826 111.936 30.6599 110.986 32.0206C110.036 33.3737 108.819 34.4303 107.337 35.1904C105.862 35.943 104.175 36.3193 102.274 36.3193ZM103.05 31.6671C103.597 31.6671 104.095 31.4885 104.543 31.1312C105 30.7739 105.387 30.2646 105.706 29.6033C106.033 28.9419 106.273 28.1552 106.425 27.243C106.577 26.3232 106.6 25.5364 106.493 24.8827C106.387 24.2214 106.166 23.7121 105.832 23.3548C105.497 22.9975 105.057 22.8189 104.509 22.8189C103.962 22.8189 103.46 22.9975 103.004 23.3548C102.548 23.7121 102.16 24.2214 101.841 24.8827C101.522 25.5364 101.286 26.3232 101.134 27.243C100.982 28.1552 100.955 28.9419 101.054 29.6033C101.161 30.2646 101.381 30.7739 101.716 31.1312C102.058 31.4885 102.502 31.6671 103.05 31.6671ZM127.314 18.486L126.539 23.0469H114.999L115.775 18.486H127.314ZM118.694 14.2899H124.988L122.32 30.3672C122.282 30.6105 122.289 30.8157 122.342 30.983C122.396 31.1426 122.502 31.2642 122.662 31.3478C122.829 31.4239 123.049 31.4619 123.323 31.4619C123.506 31.4619 123.73 31.4391 123.996 31.3935C124.262 31.3402 124.463 31.3022 124.6 31.2794L124.783 35.7035C124.463 35.7948 124.034 35.8974 123.494 36.0114C122.962 36.133 122.342 36.2128 121.636 36.2509C120.161 36.3193 118.96 36.1634 118.032 35.7834C117.113 35.4033 116.474 34.8104 116.117 34.0046C115.767 33.1912 115.706 32.1764 115.934 30.9602L118.694 14.2899Z" fill="black"/>
</svg>
