<svg width="158" height="48" viewBox="0 0 158 48" fill="none" xmlns="http://www.w3.org/2000/svg">
<path d="M20.0466 7.96143H34.319L23.8259 29.2711H9.55347L20.0466 7.96143Z" fill="#6927DA"/>
<path d="M20.6716 31.2463L16.6074 39.5001H31.5568L42.0499 18.1904H31.0163L24.5875 31.2463H20.6716Z" fill="#8A5CFF"/>
<path d="M58.5908 17.7562L59.4574 12.648H79.7536L78.887 17.7562H71.8632L68.8529 36H62.6045L65.6147 17.7562H58.5908ZM84.2062 36.3193C82.3058 36.3193 80.7399 35.943 79.5084 35.1904C78.2846 34.4303 77.4256 33.3737 76.9315 32.0206C76.4374 30.6599 76.3386 29.0826 76.6351 27.2886C76.9315 25.4946 77.551 23.9211 78.4936 22.568C79.4362 21.2073 80.6487 20.1507 82.131 19.3982C83.6133 18.638 85.3084 18.2579 87.2164 18.2579C89.1092 18.2579 90.6675 18.638 91.8914 19.3982C93.1229 20.1507 93.9856 21.2073 94.4797 22.568C94.9814 23.9211 95.0841 25.4946 94.7876 27.2886C94.4911 29.0826 93.8678 30.6599 92.9176 32.0206C91.9674 33.3737 90.7512 34.4303 89.2689 35.1904C87.7942 35.943 86.1066 36.3193 84.2062 36.3193ZM84.9816 31.6671C85.5289 31.6671 86.0268 31.4885 86.4753 31.1312C86.9314 30.7739 87.3191 30.2646 87.6383 29.6033C87.9652 28.9419 88.2046 28.1552 88.3567 27.243C88.5087 26.3232 88.5315 25.5364 88.4251 24.8827C88.3187 24.2214 88.0982 23.7121 87.7637 23.3548C87.4293 22.9975 86.9884 22.8189 86.4411 22.8189C85.8938 22.8189 85.3921 22.9975 84.936 23.3548C84.4799 23.7121 84.0922 24.2214 83.7729 24.8827C83.4537 25.5364 83.218 26.3232 83.066 27.243C82.9139 28.1552 82.8873 28.9419 82.9862 29.6033C83.0926 30.2646 83.313 30.7739 83.6475 31.1312C83.9896 31.4885 84.4343 31.6671 84.9816 31.6671ZM104.274 36.3193C102.374 36.3193 100.808 35.943 99.5766 35.1904C98.3527 34.4303 97.4938 33.3737 96.9997 32.0206C96.5056 30.6599 96.4067 29.0826 96.7032 27.2886C96.9997 25.4946 97.6192 23.9211 98.5618 22.568C99.5044 21.2073 100.717 20.1507 102.199 19.3982C103.681 18.638 105.377 18.2579 107.285 18.2579C109.177 18.2579 110.736 18.638 111.96 19.3982C113.191 20.1507 114.054 21.2073 114.548 22.568C115.05 23.9211 115.152 25.4946 114.856 27.2886C114.559 29.0826 113.936 30.6599 112.986 32.0206C112.036 33.3737 110.819 34.4303 109.337 35.1904C107.862 35.943 106.175 36.3193 104.274 36.3193ZM105.05 31.6671C105.597 31.6671 106.095 31.4885 106.543 31.1312C107 30.7739 107.387 30.2646 107.706 29.6033C108.033 28.9419 108.273 28.1552 108.425 27.243C108.577 26.3232 108.6 25.5364 108.493 24.8827C108.387 24.2214 108.166 23.7121 107.832 23.3548C107.497 22.9975 107.057 22.8189 106.509 22.8189C105.962 22.8189 105.46 22.9975 105.004 23.3548C104.548 23.7121 104.16 24.2214 103.841 24.8827C103.522 25.5364 103.286 26.3232 103.134 27.243C102.982 28.1552 102.955 28.9419 103.054 29.6033C103.161 30.2646 103.381 30.7739 103.716 31.1312C104.058 31.4885 104.502 31.6671 105.05 31.6671ZM129.314 18.486L128.539 23.0469H116.999L117.775 18.486H129.314ZM120.694 14.2899H126.988L124.32 30.3672C124.282 30.6105 124.289 30.8157 124.342 30.983C124.396 31.1426 124.502 31.2642 124.662 31.3478C124.829 31.4239 125.049 31.4619 125.323 31.4619C125.506 31.4619 125.73 31.4391 125.996 31.3935C126.262 31.3402 126.463 31.3022 126.6 31.2794L126.783 35.7035C126.463 35.7948 126.034 35.8974 125.494 36.0114C124.962 36.133 124.342 36.2128 123.636 36.2509C122.161 36.3193 120.96 36.1634 120.032 35.7834C119.113 35.4033 118.474 34.8104 118.117 34.0046C117.767 33.1912 117.706 32.1764 117.934 30.9602L120.694 14.2899Z" fill="white"/>
</svg>
